<mxfile host="Electron" agent="Mozilla/5.0 (Windows NT 10.0; Win64; x64) AppleWebKit/537.36 (KHTML, like Gecko) draw.io/26.2.2 Chrome/134.0.6998.178 Electron/35.1.2 Safari/537.36" version="26.2.2">
  <diagram name="Page-1" id="NcVL8nwfsk416UnnUsiu">
    <mxGraphModel dx="1785" dy="1104" grid="1" gridSize="10" guides="1" tooltips="1" connect="1" arrows="1" fold="1" page="1" pageScale="1" pageWidth="850" pageHeight="1100" math="0" shadow="0">
      <root>
        <mxCell id="0" />
        <mxCell id="1" parent="0" />
        <mxCell id="F2OMWV3n2IIGR0oWPVU7-1" value="User" style="shape=umlLifeline;perimeter=lifelinePerimeter;whiteSpace=wrap;html=1;container=1;dropTarget=0;collapsible=0;recursiveResize=0;outlineConnect=0;portConstraint=eastwest;newEdgeStyle={&quot;curved&quot;:0,&quot;rounded&quot;:0};" vertex="1" parent="1">
          <mxGeometry x="430" y="290" width="100" height="300" as="geometry" />
        </mxCell>
        <mxCell id="F2OMWV3n2IIGR0oWPVU7-2" value="MapController" style="shape=umlLifeline;perimeter=lifelinePerimeter;whiteSpace=wrap;html=1;container=1;dropTarget=0;collapsible=0;recursiveResize=0;outlineConnect=0;portConstraint=eastwest;newEdgeStyle={&quot;curved&quot;:0,&quot;rounded&quot;:0};" vertex="1" parent="1">
          <mxGeometry x="640" y="290" width="100" height="300" as="geometry" />
        </mxCell>
        <mxCell id="F2OMWV3n2IIGR0oWPVU7-3" value="Database" style="shape=umlLifeline;perimeter=lifelinePerimeter;whiteSpace=wrap;html=1;container=1;dropTarget=0;collapsible=0;recursiveResize=0;outlineConnect=0;portConstraint=eastwest;newEdgeStyle={&quot;curved&quot;:0,&quot;rounded&quot;:0};" vertex="1" parent="1">
          <mxGeometry x="780" y="290" width="100" height="300" as="geometry" />
        </mxCell>
        <mxCell id="F2OMWV3n2IIGR0oWPVU7-4" value="Report" style="shape=umlLifeline;perimeter=lifelinePerimeter;whiteSpace=wrap;html=1;container=1;dropTarget=0;collapsible=0;recursiveResize=0;outlineConnect=0;portConstraint=eastwest;newEdgeStyle={&quot;curved&quot;:0,&quot;rounded&quot;:0};" vertex="1" parent="1">
          <mxGeometry x="1090" y="290" width="100" height="1350" as="geometry" />
        </mxCell>
        <mxCell id="F2OMWV3n2IIGR0oWPVU7-5" value="" style="html=1;points=[[0,0,0,0,5],[0,1,0,0,-5],[1,0,0,0,5],[1,1,0,0,-5]];perimeter=orthogonalPerimeter;outlineConnect=0;targetShapes=umlLifeline;portConstraint=eastwest;newEdgeStyle={&quot;curved&quot;:0,&quot;rounded&quot;:0};" vertex="1" parent="F2OMWV3n2IIGR0oWPVU7-4">
          <mxGeometry x="45" y="390" width="10" height="960" as="geometry" />
        </mxCell>
        <mxCell id="F2OMWV3n2IIGR0oWPVU7-6" value="MapView" style="shape=umlLifeline;perimeter=lifelinePerimeter;whiteSpace=wrap;html=1;container=1;dropTarget=0;collapsible=0;recursiveResize=0;outlineConnect=0;portConstraint=eastwest;newEdgeStyle={&quot;curved&quot;:0,&quot;rounded&quot;:0};" vertex="1" parent="1">
          <mxGeometry x="930" y="290" width="100" height="1350" as="geometry" />
        </mxCell>
        <mxCell id="F2OMWV3n2IIGR0oWPVU7-7" value="" style="html=1;points=[[0,0,0,0,5],[0,1,0,0,-5],[1,0,0,0,5],[1,1,0,0,-5]];perimeter=orthogonalPerimeter;outlineConnect=0;targetShapes=umlLifeline;portConstraint=eastwest;newEdgeStyle={&quot;curved&quot;:0,&quot;rounded&quot;:0};" vertex="1" parent="F2OMWV3n2IIGR0oWPVU7-6">
          <mxGeometry x="45" y="390" width="10" height="960" as="geometry" />
        </mxCell>
        <mxCell id="F2OMWV3n2IIGR0oWPVU7-8" value="" style="html=1;verticalAlign=bottom;labelBackgroundColor=none;endArrow=block;endFill=1;rounded=0;" edge="1" parent="1" target="F2OMWV3n2IIGR0oWPVU7-2">
          <mxGeometry width="160" relative="1" as="geometry">
            <mxPoint x="485" y="420" as="sourcePoint" />
            <mxPoint x="670" y="420" as="targetPoint" />
          </mxGeometry>
        </mxCell>
        <mxCell id="F2OMWV3n2IIGR0oWPVU7-9" value="handleMapRequest()" style="text;html=1;align=center;verticalAlign=middle;resizable=0;points=[];autosize=1;strokeColor=none;fillColor=none;" vertex="1" parent="1">
          <mxGeometry x="510" y="390" width="140" height="30" as="geometry" />
        </mxCell>
        <mxCell id="F2OMWV3n2IIGR0oWPVU7-10" value="" style="html=1;points=[[0,0,0,0,5],[0,1,0,0,-5],[1,0,0,0,5],[1,1,0,0,-5]];perimeter=orthogonalPerimeter;outlineConnect=0;targetShapes=umlLifeline;portConstraint=eastwest;newEdgeStyle={&quot;curved&quot;:0,&quot;rounded&quot;:0};" vertex="1" parent="1">
          <mxGeometry x="475" y="400" width="10" height="1240" as="geometry" />
        </mxCell>
        <mxCell id="F2OMWV3n2IIGR0oWPVU7-11" value="" style="html=1;points=[[0,0,0,0,5],[0,1,0,0,-5],[1,0,0,0,5],[1,1,0,0,-5]];perimeter=orthogonalPerimeter;outlineConnect=0;targetShapes=umlLifeline;portConstraint=eastwest;newEdgeStyle={&quot;curved&quot;:0,&quot;rounded&quot;:0};" vertex="1" parent="1">
          <mxGeometry x="685" y="400" width="10" height="1250" as="geometry" />
        </mxCell>
        <mxCell id="F2OMWV3n2IIGR0oWPVU7-12" value="" style="html=1;points=[[0,0,0,0,5],[0,1,0,0,-5],[1,0,0,0,5],[1,1,0,0,-5]];perimeter=orthogonalPerimeter;outlineConnect=0;targetShapes=umlLifeline;portConstraint=eastwest;newEdgeStyle={&quot;curved&quot;:0,&quot;rounded&quot;:0};" vertex="1" parent="1">
          <mxGeometry x="825" y="480" width="10" height="1160" as="geometry" />
        </mxCell>
        <mxCell id="F2OMWV3n2IIGR0oWPVU7-13" value="" style="html=1;verticalAlign=bottom;labelBackgroundColor=none;endArrow=block;endFill=1;rounded=0;" edge="1" parent="1">
          <mxGeometry width="160" relative="1" as="geometry">
            <mxPoint x="479.5" y="500" as="sourcePoint" />
            <mxPoint x="825" y="500" as="targetPoint" />
            <Array as="points">
              <mxPoint x="650" y="500" />
            </Array>
          </mxGeometry>
        </mxCell>
        <mxCell id="F2OMWV3n2IIGR0oWPVU7-14" value="getConfirmedReports()" style="text;html=1;align=center;verticalAlign=middle;resizable=0;points=[];autosize=1;strokeColor=none;fillColor=none;" vertex="1" parent="1">
          <mxGeometry x="530" y="470" width="150" height="30" as="geometry" />
        </mxCell>
        <mxCell id="F2OMWV3n2IIGR0oWPVU7-15" value="alt" style="shape=umlFrame;whiteSpace=wrap;html=1;pointerEvents=0;" vertex="1" parent="1">
          <mxGeometry x="455" y="560" width="745" height="620" as="geometry" />
        </mxCell>
        <mxCell id="F2OMWV3n2IIGR0oWPVU7-16" value="" style="html=1;verticalAlign=bottom;labelBackgroundColor=none;endArrow=block;endFill=1;dashed=1;rounded=0;" edge="1" parent="1" source="F2OMWV3n2IIGR0oWPVU7-11" target="F2OMWV3n2IIGR0oWPVU7-10">
          <mxGeometry width="160" relative="1" as="geometry">
            <mxPoint x="630" y="660" as="sourcePoint" />
            <mxPoint x="790" y="660" as="targetPoint" />
            <Array as="points">
              <mxPoint x="600" y="620" />
            </Array>
          </mxGeometry>
        </mxCell>
        <mxCell id="F2OMWV3n2IIGR0oWPVU7-17" value="displayError(&quot;Αποτυχία φόρτωσης δεδομένων&quot;)" style="text;html=1;align=center;verticalAlign=middle;resizable=0;points=[];autosize=1;strokeColor=none;fillColor=none;" vertex="1" parent="1">
          <mxGeometry x="460" y="590" width="270" height="30" as="geometry" />
        </mxCell>
        <mxCell id="F2OMWV3n2IIGR0oWPVU7-18" value="" style="html=1;verticalAlign=bottom;labelBackgroundColor=none;endArrow=block;endFill=1;rounded=0;" edge="1" parent="1">
          <mxGeometry width="160" relative="1" as="geometry">
            <mxPoint x="485" y="670" as="sourcePoint" />
            <mxPoint x="690" y="670" as="targetPoint" />
            <Array as="points">
              <mxPoint x="590" y="670" />
            </Array>
          </mxGeometry>
        </mxCell>
        <mxCell id="F2OMWV3n2IIGR0oWPVU7-19" value="retryRequest()" style="text;html=1;align=center;verticalAlign=middle;resizable=0;points=[];autosize=1;strokeColor=none;fillColor=none;" vertex="1" parent="1">
          <mxGeometry x="540" y="638" width="100" height="30" as="geometry" />
        </mxCell>
        <mxCell id="F2OMWV3n2IIGR0oWPVU7-20" value="showMessage(&quot;Δεν υπάρχουν επιβεβαιωμένοι κίνδυνοι&quot;)" style="text;html=1;align=center;verticalAlign=middle;resizable=0;points=[];autosize=1;strokeColor=none;fillColor=none;" vertex="1" parent="1">
          <mxGeometry x="450" y="910" width="330" height="30" as="geometry" />
        </mxCell>
        <mxCell id="F2OMWV3n2IIGR0oWPVU7-21" value="showWarning(&quot;Σφάλμα Τοποθεσίας&quot;)" style="text;html=1;align=center;verticalAlign=middle;resizable=0;points=[];autosize=1;strokeColor=none;fillColor=none;" vertex="1" parent="1">
          <mxGeometry x="475" y="1050" width="220" height="30" as="geometry" />
        </mxCell>
        <mxCell id="F2OMWV3n2IIGR0oWPVU7-22" value="clickMarker(markerId)" style="text;html=1;align=center;verticalAlign=middle;resizable=0;points=[];autosize=1;strokeColor=none;fillColor=none;" vertex="1" parent="1">
          <mxGeometry x="685" y="1200" width="140" height="30" as="geometry" />
        </mxCell>
        <mxCell id="F2OMWV3n2IIGR0oWPVU7-23" value="showPopup(info)" style="text;html=1;align=center;verticalAlign=middle;resizable=0;points=[];autosize=1;strokeColor=none;fillColor=none;" vertex="1" parent="1">
          <mxGeometry x="700" y="1258" width="110" height="30" as="geometry" />
        </mxCell>
        <mxCell id="F2OMWV3n2IIGR0oWPVU7-24" value="monitorNewReports()" style="text;html=1;align=center;verticalAlign=middle;resizable=0;points=[];autosize=1;strokeColor=none;fillColor=none;" vertex="1" parent="1">
          <mxGeometry x="690" y="1450" width="140" height="30" as="geometry" />
        </mxCell>
        <mxCell id="F2OMWV3n2IIGR0oWPVU7-25" value="addReport(newReport)" style="text;html=1;align=center;verticalAlign=middle;resizable=0;points=[];autosize=1;strokeColor=none;fillColor=none;" vertex="1" parent="1">
          <mxGeometry x="835" y="1510" width="150" height="30" as="geometry" />
        </mxCell>
        <mxCell id="F2OMWV3n2IIGR0oWPVU7-26" value="[DB failure]" style="text;html=1;align=center;verticalAlign=middle;resizable=0;points=[];autosize=1;strokeColor=none;fillColor=none;" vertex="1" parent="1">
          <mxGeometry x="510" y="558" width="80" height="30" as="geometry" />
        </mxCell>
        <mxCell id="F2OMWV3n2IIGR0oWPVU7-27" value="" style="endArrow=none;dashed=1;html=1;rounded=0;entryX=1.009;entryY=0.267;entryDx=0;entryDy=0;entryPerimeter=0;exitX=0;exitY=0.342;exitDx=0;exitDy=0;exitPerimeter=0;" edge="1" parent="1">
          <mxGeometry width="50" height="50" relative="1" as="geometry">
            <mxPoint x="455" y="680.22" as="sourcePoint" />
            <mxPoint x="1196.705" y="680" as="targetPoint" />
          </mxGeometry>
        </mxCell>
        <mxCell id="F2OMWV3n2IIGR0oWPVU7-28" value="else [Success]" style="text;html=1;align=center;verticalAlign=middle;resizable=0;points=[];autosize=1;strokeColor=none;fillColor=none;" vertex="1" parent="1">
          <mxGeometry x="450" y="678" width="100" height="30" as="geometry" />
        </mxCell>
        <mxCell id="F2OMWV3n2IIGR0oWPVU7-29" value="loop" style="shape=umlFrame;whiteSpace=wrap;html=1;pointerEvents=0;" vertex="1" parent="1">
          <mxGeometry x="455" y="720" width="745" height="460" as="geometry" />
        </mxCell>
        <mxCell id="F2OMWV3n2IIGR0oWPVU7-30" value="[for each Report]" style="text;html=1;align=center;verticalAlign=middle;resizable=0;points=[];autosize=1;strokeColor=none;fillColor=none;" vertex="1" parent="1">
          <mxGeometry x="520" y="720" width="110" height="30" as="geometry" />
        </mxCell>
        <mxCell id="F2OMWV3n2IIGR0oWPVU7-31" value="" style="html=1;verticalAlign=bottom;labelBackgroundColor=none;endArrow=block;endFill=1;rounded=0;" edge="1" parent="1" target="F2OMWV3n2IIGR0oWPVU7-4">
          <mxGeometry width="160" relative="1" as="geometry">
            <mxPoint x="695" y="764.33" as="sourcePoint" />
            <mxPoint x="855" y="764.33" as="targetPoint" />
          </mxGeometry>
        </mxCell>
        <mxCell id="F2OMWV3n2IIGR0oWPVU7-32" value="getCoordinates()" style="text;html=1;align=center;verticalAlign=middle;resizable=0;points=[];autosize=1;strokeColor=none;fillColor=none;" vertex="1" parent="1">
          <mxGeometry x="855" y="728" width="110" height="30" as="geometry" />
        </mxCell>
        <mxCell id="F2OMWV3n2IIGR0oWPVU7-33" value="" style="html=1;verticalAlign=bottom;labelBackgroundColor=none;endArrow=block;endFill=1;rounded=0;" edge="1" parent="1" target="F2OMWV3n2IIGR0oWPVU7-6">
          <mxGeometry width="160" relative="1" as="geometry">
            <mxPoint x="695" y="828.67" as="sourcePoint" />
            <mxPoint x="855" y="828.67" as="targetPoint" />
          </mxGeometry>
        </mxCell>
        <mxCell id="F2OMWV3n2IIGR0oWPVU7-34" value="addReport(report)" style="text;html=1;align=center;verticalAlign=middle;resizable=0;points=[];autosize=1;strokeColor=none;fillColor=none;" vertex="1" parent="1">
          <mxGeometry x="845" y="800" width="120" height="30" as="geometry" />
        </mxCell>
        <mxCell id="F2OMWV3n2IIGR0oWPVU7-35" value="end" style="text;html=1;align=center;verticalAlign=middle;resizable=0;points=[];autosize=1;strokeColor=none;fillColor=none;" vertex="1" parent="1">
          <mxGeometry x="450" y="838" width="40" height="30" as="geometry" />
        </mxCell>
        <mxCell id="F2OMWV3n2IIGR0oWPVU7-36" value="alt" style="shape=umlFrame;whiteSpace=wrap;html=1;pointerEvents=0;" vertex="1" parent="1">
          <mxGeometry x="455" y="870" width="325" height="120" as="geometry" />
        </mxCell>
        <mxCell id="F2OMWV3n2IIGR0oWPVU7-37" value="[no reports]" style="text;html=1;align=center;verticalAlign=middle;resizable=0;points=[];autosize=1;strokeColor=none;fillColor=none;" vertex="1" parent="1">
          <mxGeometry x="520" y="870" width="80" height="30" as="geometry" />
        </mxCell>
        <mxCell id="F2OMWV3n2IIGR0oWPVU7-38" value="" style="html=1;verticalAlign=bottom;labelBackgroundColor=none;endArrow=block;endFill=1;dashed=1;rounded=0;" edge="1" parent="1">
          <mxGeometry width="160" relative="1" as="geometry">
            <mxPoint x="680" y="944.33" as="sourcePoint" />
            <mxPoint x="480" y="944.33" as="targetPoint" />
          </mxGeometry>
        </mxCell>
        <mxCell id="F2OMWV3n2IIGR0oWPVU7-39" value="end" style="text;html=1;align=center;verticalAlign=middle;resizable=0;points=[];autosize=1;strokeColor=none;fillColor=none;" vertex="1" parent="1">
          <mxGeometry x="450" y="955" width="40" height="30" as="geometry" />
        </mxCell>
        <mxCell id="F2OMWV3n2IIGR0oWPVU7-40" value="alt" style="shape=umlFrame;whiteSpace=wrap;html=1;pointerEvents=0;" vertex="1" parent="1">
          <mxGeometry x="455" y="990" width="300" height="140" as="geometry" />
        </mxCell>
        <mxCell id="F2OMWV3n2IIGR0oWPVU7-41" value="[invalid coordinates]" style="text;html=1;align=center;verticalAlign=middle;resizable=0;points=[];autosize=1;strokeColor=none;fillColor=none;" vertex="1" parent="1">
          <mxGeometry x="510" y="990" width="130" height="30" as="geometry" />
        </mxCell>
        <mxCell id="F2OMWV3n2IIGR0oWPVU7-42" value="" style="html=1;verticalAlign=bottom;labelBackgroundColor=none;endArrow=block;endFill=1;dashed=1;rounded=0;" edge="1" parent="1">
          <mxGeometry width="160" relative="1" as="geometry">
            <mxPoint x="685" y="1080" as="sourcePoint" />
            <mxPoint x="485" y="1080" as="targetPoint" />
          </mxGeometry>
        </mxCell>
        <mxCell id="F2OMWV3n2IIGR0oWPVU7-43" value="end" style="text;html=1;align=center;verticalAlign=middle;resizable=0;points=[];autosize=1;strokeColor=none;fillColor=none;" vertex="1" parent="1">
          <mxGeometry x="455" y="1090" width="40" height="30" as="geometry" />
        </mxCell>
        <mxCell id="F2OMWV3n2IIGR0oWPVU7-44" value="end" style="text;html=1;align=center;verticalAlign=middle;resizable=0;points=[];autosize=1;strokeColor=none;fillColor=none;" vertex="1" parent="1">
          <mxGeometry x="450" y="1140" width="40" height="30" as="geometry" />
        </mxCell>
        <mxCell id="F2OMWV3n2IIGR0oWPVU7-45" value="" style="html=1;verticalAlign=bottom;labelBackgroundColor=none;endArrow=block;endFill=1;rounded=0;" edge="1" parent="1" target="F2OMWV3n2IIGR0oWPVU7-6">
          <mxGeometry width="160" relative="1" as="geometry">
            <mxPoint x="485" y="1234.33" as="sourcePoint" />
            <mxPoint x="645" y="1234.33" as="targetPoint" />
          </mxGeometry>
        </mxCell>
        <mxCell id="F2OMWV3n2IIGR0oWPVU7-46" value="" style="html=1;verticalAlign=bottom;labelBackgroundColor=none;endArrow=block;endFill=1;dashed=1;rounded=0;" edge="1" parent="1">
          <mxGeometry width="160" relative="1" as="geometry">
            <mxPoint x="979.5" y="1299" as="sourcePoint" />
            <mxPoint x="485" y="1299" as="targetPoint" />
          </mxGeometry>
        </mxCell>
        <mxCell id="F2OMWV3n2IIGR0oWPVU7-47" value="" style="html=1;verticalAlign=bottom;labelBackgroundColor=none;endArrow=block;endFill=1;rounded=0;" edge="1" parent="1">
          <mxGeometry width="160" relative="1" as="geometry">
            <mxPoint x="485" y="1370.33" as="sourcePoint" />
            <mxPoint x="980" y="1370" as="targetPoint" />
          </mxGeometry>
        </mxCell>
        <mxCell id="F2OMWV3n2IIGR0oWPVU7-48" value="zoom(level)" style="text;html=1;align=center;verticalAlign=middle;resizable=0;points=[];autosize=1;strokeColor=none;fillColor=none;" vertex="1" parent="1">
          <mxGeometry x="715" y="1328" width="90" height="30" as="geometry" />
        </mxCell>
        <mxCell id="F2OMWV3n2IIGR0oWPVU7-49" value="loop" style="shape=umlFrame;whiteSpace=wrap;html=1;pointerEvents=0;" vertex="1" parent="1">
          <mxGeometry x="460" y="1410" width="600" height="200" as="geometry" />
        </mxCell>
        <mxCell id="F2OMWV3n2IIGR0oWPVU7-50" value="[monitoring]" style="text;html=1;align=center;verticalAlign=middle;resizable=0;points=[];autosize=1;strokeColor=none;fillColor=none;" vertex="1" parent="1">
          <mxGeometry x="520" y="1410" width="90" height="30" as="geometry" />
        </mxCell>
        <mxCell id="F2OMWV3n2IIGR0oWPVU7-51" value="" style="html=1;verticalAlign=bottom;labelBackgroundColor=none;endArrow=block;endFill=1;rounded=0;" edge="1" parent="1" target="F2OMWV3n2IIGR0oWPVU7-12">
          <mxGeometry width="160" relative="1" as="geometry">
            <mxPoint x="695" y="1480" as="sourcePoint" />
            <mxPoint x="820" y="1480" as="targetPoint" />
          </mxGeometry>
        </mxCell>
        <mxCell id="F2OMWV3n2IIGR0oWPVU7-52" value="" style="html=1;verticalAlign=bottom;labelBackgroundColor=none;endArrow=block;endFill=1;rounded=0;" edge="1" parent="1" target="F2OMWV3n2IIGR0oWPVU7-6">
          <mxGeometry width="160" relative="1" as="geometry">
            <mxPoint x="695" y="1550" as="sourcePoint" />
            <mxPoint x="855" y="1550" as="targetPoint" />
          </mxGeometry>
        </mxCell>
        <mxCell id="F2OMWV3n2IIGR0oWPVU7-53" value="end" style="text;html=1;align=center;verticalAlign=middle;resizable=0;points=[];autosize=1;strokeColor=none;fillColor=none;" vertex="1" parent="1">
          <mxGeometry x="455" y="1580" width="40" height="30" as="geometry" />
        </mxCell>
      </root>
    </mxGraphModel>
  </diagram>
</mxfile>
